# xmcd
#
# Track frame offsets: 
#        150
#        17146
#        38618
#        55069
#        72383
#        92286
#        106588
#        119761
#        138149
#
# Disc length: 2021 seconds
#
# Revision: 0
# Processed by: cddbd v1.5.2PL0 Copyright (c) Steve Scherf et al.
# Submitted via: ExactAudioCopy v0.99pb4
#
DISCID=6b07e309
DTITLE=Brandon Johnson - Scream
DYEAR=2004
DGENRE=Country
TTITLE0=If I´d Know
TTITLE1=Scream
TTITLE2=Breakdown
TTITLE3=Rebound
TTITLE4=Creek Ran Dry
TTITLE5=Little Sister
TTITLE6=Falling In Love
TTITLE7=October Prayer
TTITLE8=Life´s Railway
EXTD=
EXTT0=
EXTT1=
EXTT2=
EXTT3=
EXTT4=
EXTT5=
EXTT6=
EXTT7=
EXTT8=
PLAYORDER=
